<svg id="brainstorm" xmlns="http://www.w3.org/2000/svg" width="100" height="88.368" viewBox="0 0 100 88.368">
  <path id="Path_4223" data-name="Path 4223" d="M94.763,37.108a1.932,1.932,0,0,0,.14-.4,8.822,8.822,0,0,0-3-9.244c-.428-3.485-3.714-5.714-6.4-6.79a11.606,11.606,0,0,0-3.717-7.938c-3.595-3.256-8.746-3.7-11.264-3.7h-.077C67.987,4.849,62.373,4.655,59.1,5.263a44.623,44.623,0,0,0-5.762-1.554,1.96,1.96,0,1,0-.759,3.845A41.065,41.065,0,0,1,58.313,9.14a1.952,1.952,0,0,0,1.1.061c.066-.015,6.536-1.486,7.955,2.507A1.967,1.967,0,0,0,69.408,13c.062-.006,6.237-.548,9.753,2.65a7.416,7.416,0,0,1,2.312,4.406c-2.645.127-6.771,1.056-8.919,5.307a1.96,1.96,0,0,0,3.5,1.768c1.808-3.577,6.3-3.218,7.117-3.12.725.238,5.024,1.77,4.851,4.4a1.96,1.96,0,0,0,1.057,1.87A4.6,4.6,0,0,1,90.385,31.5a4.934,4.934,0,0,1,.777,3.942l-.132.175c-3.043.334-7.62,2.248-8.245,7.907a1.961,1.961,0,0,0,1.734,2.164,2.1,2.1,0,0,0,.217.011,1.96,1.96,0,0,0,1.946-1.745,4.979,4.979,0,0,1,4.8-4.44c8.591,6.3,2.527,20.991,2.126,21.933-2.127,4.065-4.8,6.145-8.143,6.335a28.822,28.822,0,0,0-11.752-5.434,1.96,1.96,0,1,0-.914,3.812,25.5,25.5,0,0,1,9.99,4.5,7.315,7.315,0,0,1-.217,1.586c-1.395,5.539-8.894,8.444-16.717,6.474a20.187,20.187,0,0,1-3.728-1.336,1.961,1.961,0,0,0-2.8,1.6,26.564,26.564,0,0,0,.323,7.293l-5.148.856c-.22-.779-.44-1.691-.679-2.682-1.151-4.763-2.812-11.634-7.7-17.272A75.835,75.835,0,0,1,57.8,65.226a1.96,1.96,0,1,0-.32-3.906,83.318,83.318,0,0,0-15.536,2.9,43.181,43.181,0,0,1-8.863.37c-8.5-1.277-10.873-6.41-10.32-10.424a1.961,1.961,0,0,0-2.408-2.171l-1.421.348c-2.479-.123-8.675-1.082-11.463-4.328A6.371,6.371,0,0,1,6.055,42.8a1.96,1.96,0,0,0-1.031-1.973,2.468,2.468,0,0,1-1.048-1.393,4.422,4.422,0,0,1,1.1-3.191,1.96,1.96,0,0,0,.256-1.829c-.015-.041-1.461-4.211.19-7.672a8.475,8.475,0,0,1,5.235-4.22,1.941,1.941,0,0,0,1.318-1.688,6.019,6.019,0,0,1,2.063-3.861c1.251-.932,3.056-1.171,5.364-.709a1.961,1.961,0,0,0,2.321-1.613c.007-.043.885-4.122,8.535-4.266,1.16,1.584,3.721,5.746,1.821,9.475a1.961,1.961,0,0,0,3.5,1.779,10.1,10.1,0,0,0,1.1-4.122,6.481,6.481,0,0,1,4.021-.542,3.3,3.3,0,0,1,2.011,1.9,1.961,1.961,0,0,0,3.526-1.718,7.2,7.2,0,0,0-4.42-3.937,9.474,9.474,0,0,0-5.646.3A17.587,17.587,0,0,0,34.24,9.127a25.625,25.625,0,0,1,3.7-1.274,1.96,1.96,0,1,0-1-3.791,26.864,26.864,0,0,0-6.164,2.4c-7.941,0-11.011,3.469-12.167,5.715a9.529,9.529,0,0,0-6.869,1.691,9.548,9.548,0,0,0-3.355,5.363,11.839,11.839,0,0,0-6.411,5.826,14.7,14.7,0,0,0-.633,9.706A7.283,7.283,0,0,0,.155,40.319,6.1,6.1,0,0,0,2.07,43.488,10,10,0,0,0,4.5,50.562c4.224,4.915,12.642,5.6,14.3,5.691.428,5.466,4.591,10.86,13.761,12.217l.089.011c.082.008,1.1.108,2.813.108A52.143,52.143,0,0,0,41.7,68.2c5.409,5.112,7.087,12.048,8.322,17.165a35.311,35.311,0,0,0,1.345,4.712,1.96,1.96,0,0,0,1.814,1.219,1.933,1.933,0,0,0,.323-.027l8.872-1.476a1.96,1.96,0,0,0,1.561-2.479,20.558,20.558,0,0,1-.785-5.307c.575.192,1.16.362,1.752.511a21.71,21.71,0,0,0,13.486-.725c4.195-1.734,7.033-4.787,7.992-8.594a11.262,11.262,0,0,0,.279-1.6c3.347-.465,7.376-2.457,10.465-8.4.018-.035.035-.07.051-.106A37.6,37.6,0,0,0,99.842,52.83c.722-6.834-1.03-12.223-5.08-15.722Zm0,0" transform="translate(-0.001 -2.926)" fill="#8c8b8b"/>
  <path id="Path_4224" data-name="Path 4224" d="M230.37,135.987a15.788,15.788,0,0,0,2.5,5.691,13.786,13.786,0,0,0,1.725,2c-.367,2.1-3.573,3.244-3.648,3.27a2.041,2.041,0,0,0,1.311,3.865,10.252,10.252,0,0,0,5.84-4.766,13.918,13.918,0,0,0,5.8,1.18c.146,0,.295,0,.444-.006a2.041,2.041,0,0,0-.052-4.081h-.052c-8.188.206-9.784-7.543-9.853-7.9a2.04,2.04,0,0,0-4.013.74Zm0,0" transform="translate(-185.08 -107.737)" fill="#8c8b8b"/>
  <path id="Path_4225" data-name="Path 4225" d="M326.632,159.219c3.543-6.191,2.144-10.978.347-13.9a15.255,15.255,0,0,0-4.749-4.785,2.041,2.041,0,0,0-2.074,3.515,11.206,11.206,0,0,1,3.415,3.521c1.7,2.858,1.537,6.1-.482,9.625a2.041,2.041,0,1,0,3.543,2.027Zm0,0" transform="translate(-257.085 -113.167)" fill="#8c8b8b"/>
  <path id="Path_4226" data-name="Path 4226" d="M402.093,234a2.041,2.041,0,0,0-2.372-3.321c-1.99,1.421-3.8,1.956-5.381,1.587a6.632,6.632,0,0,1-3.767-3.056,2.04,2.04,0,0,0-3.613,1.9,11.073,11.073,0,0,0,5.379,4.805c-.632,2.5-1.035,6.9,2.654,9.986a2.041,2.041,0,1,0,2.618-3.131c-2.252-1.883-1.619-4.974-1.175-6.373A12.414,12.414,0,0,0,402.093,234Zm0,0" transform="translate(-312.193 -184.016)" fill="#8c8b8b"/>
  <path id="Path_4227" data-name="Path 4227" d="M104.169,185.572a2.041,2.041,0,0,0-4.049.514c.354,2.793-1.837,4.825-3.134,5.768a12.718,12.718,0,0,0-7.1-.969,2.041,2.041,0,0,0,.7,4.021c.035-.006,3.479-.558,5.541,1.228,1.177,1.02,1.746,2.727,1.691,5.071a2.041,2.041,0,0,0,1.993,2.087h.048A2.041,2.041,0,0,0,101.9,201.3a11.054,11.054,0,0,0-1.739-6.743c2-1.66,4.559-4.678,4.013-8.986Zm0,0" transform="translate(-71.102 -148.286)" fill="#8c8b8b"/>
  <path id="Path_4228" data-name="Path 4228" d="M52.648,112.355a4.565,4.565,0,0,1-.983,1.437,6.571,6.571,0,0,1-2.549,1.563,2.04,2.04,0,0,0,1.077,3.936,10.637,10.637,0,0,0,4.671-2.951,7.78,7.78,0,0,0,4.717,1.54,9.356,9.356,0,0,0,1.5-.123,11.875,11.875,0,0,0,4.234-1.586,2.041,2.041,0,1,0-2.22-3.425,8.064,8.064,0,0,1-2.662.981,3.866,3.866,0,0,1-3.588-1.047,11.259,11.259,0,0,0-.174-5.855,2.04,2.04,0,1,0-3.938,1.069,6.681,6.681,0,0,1-.044,4.372l-.038.089Zm0,0" transform="translate(-37.941 -84.9)" fill="#8c8b8b"/>
  <path id="Path_4229" data-name="Path 4229" d="M271.727,49.613a10.641,10.641,0,0,0-7.575-.943,2.041,2.041,0,0,0,1.084,3.935,6.466,6.466,0,0,1,4.408.517,5.536,5.536,0,0,1,2.369,3.711A2.042,2.042,0,0,0,274,58.407a2.067,2.067,0,0,0,.468-.055,2.04,2.04,0,0,0,1.519-2.453A9.429,9.429,0,0,0,271.727,49.613Zm0,0" transform="translate(-211.662 -38.528)" fill="#8c8b8b"/>
  <path id="Path_4230" data-name="Path 4230" d="M219.813,239.838a7.382,7.382,0,0,1-6.243,3.976,10.453,10.453,0,0,1-3.984-.6,2.041,2.041,0,0,0-1.553,3.774,14.155,14.155,0,0,0,5.052.923q.253,0,.514-.01a11.361,11.361,0,0,0,9.743-6.008,2.041,2.041,0,0,0-3.528-2.052Zm0,0" transform="translate(-166.706 -192.387)" fill="#8c8b8b"/>
  <path id="Path_4231" data-name="Path 4231" d="M328.965,299.146a2.04,2.04,0,1,0-.3,2.623A2.052,2.052,0,0,0,328.965,299.146Zm0,0" transform="translate(-261.812 -240.101)" fill="#8c8b8b"/>
  <path id="Path_4232" data-name="Path 4232" d="M221.6,2.817a2.038,2.038,0,0,0,3.815-.125,2.039,2.039,0,1,0-3.815.125Zm0,0" transform="translate(-178.265 -0.001)" fill="#8c8b8b"/>
</svg>
