<svg id="Paw-a" xmlns="http://www.w3.org/2000/svg" width="100" height="91.818" viewBox="0 0 100 91.818">
  <path id="Path_4238" data-name="Path 4238" d="M136.729,48.378c6.519,0,10.779-6.811,10.779-13.719S143.236,20.94,136.729,20.94,125.95,27.751,125.95,34.659,130.223,48.378,136.729,48.378Zm0-23.518c3.718,0,6.86,4.488,6.86,9.8s-3.141,9.8-6.86,9.8-6.86-4.488-6.86-9.8S133.011,24.86,136.729,24.86Z" transform="translate(-101.367 -20.94)" fill="#8c8b8b"/>
  <path id="Path_4239" data-name="Path 4239" d="M286.73,48.378c6.519,0,10.779-6.811,10.779-13.719S293.237,20.94,286.73,20.94s-10.779,6.811-10.779,13.719S280.224,48.378,286.73,48.378Zm0-23.518c3.718,0,6.859,4.488,6.859,9.8s-3.141,9.8-6.859,9.8-6.86-4.488-6.86-9.8S283.012,24.86,286.73,24.86Z" transform="translate(-222.091 -20.94)" fill="#8c8b8b"/>
  <path id="Path_4240" data-name="Path 4240" d="M18.448,169.15c5.656-3.263,5.924-11.3,2.476-17.27-3.459-6-10.557-9.747-16.195-6.492S-1.2,156.67,2.254,162.658s10.582,9.733,16.194,6.492ZM6.689,148.782c3.759-2.17,8.629,1.223,10.84,5.056h0c2.206,3.821,2.725,9.744-1.041,11.916s-8.63-1.229-10.84-5.057-2.722-9.745,1.041-11.916Z" transform="translate(0 -120.14)" fill="#8c8b8b"/>
  <path id="Path_4241" data-name="Path 4241" d="M398.365,169.145c5.645,3.261,12.74-.508,16.195-6.491,3.479-6.025,3.132-14.034-2.475-17.27-5.663-3.269-12.755.529-16.194,6.491C392.422,157.881,392.736,165.9,398.365,169.145Zm.92-15.311c2.2-3.811,7.069-7.234,10.84-5.056s3.25,8.088,1.04,11.916-7.076,7.231-10.841,5.056S397.068,157.674,399.285,153.834Z" transform="translate(-316.813 -120.136)" fill="#8c8b8b"/>
  <circle id="Ellipse_58" data-name="Ellipse 58" cx="1.96" cy="1.96" r="1.96" transform="translate(80.609 79.469)" fill="#8c8b8b"/>
  <path id="Path_4242" data-name="Path 4242" d="M66.375,241a18.872,18.872,0,0,0,15.755,16.464,19.416,19.416,0,0,0,15.259-3.633,9.68,9.68,0,0,1,11.645,0,19.419,19.419,0,0,0,15.259,3.633,19.99,19.99,0,0,0,6.208-2.158,1.958,1.958,0,0,0-1.879-3.435,16.115,16.115,0,0,1-5,1.732,15.567,15.567,0,0,1-12.235-2.9,13.586,13.586,0,0,0-16.345,0A15.567,15.567,0,0,1,82.8,253.6a15.022,15.022,0,0,1-12.563-13.133c-.956-7.037,2.333-13.456,8.382-16.355a13.337,13.337,0,0,0,6.287-6.145c3.949-8.211,10.791-13.114,18.3-13.114s14.351,4.9,18.3,13.114a13.337,13.337,0,0,0,6.289,6.145,15.291,15.291,0,0,1,8.523,14.73,1.951,1.951,0,1,0,3.9.155,19.157,19.157,0,0,0-10.74-18.422,9.417,9.417,0,0,1-4.457-4.313c-4.26-8.857-12.23-15.328-21.815-15.328S85.654,207.417,81.4,216.267a9.416,9.416,0,0,1-4.455,4.313c-7.922,3.8-11.685,12.2-10.567,20.422Z" transform="translate(-53.211 -165.959)" fill="#8c8b8b"/>
</svg>
