<svg xmlns="http://www.w3.org/2000/svg" width="18" height="20" viewBox="0 0 18 20"><g id="Addresses" transform="translate(2346 5361)"><path id="Path_622" data-name="Path 622" d="M217.692,104.677a.338.338,0,0,0,0-.677,1.692,1.692,0,0,0,0,3.383.338.338,0,0,0,0-.677,1.015,1.015,0,0,1,0-2.03Z" transform="translate(-2555.678 -5461.345)" fill="#303030"/><path id="Path_624" data-name="Path 624" d="M182.767,67.383a3.383,3.383,0,1,0-3.383,3.383A3.383,3.383,0,0,0,182.767,67.383Zm-3.383,2.707a2.707,2.707,0,1,1,2.707-2.707A2.707,2.707,0,0,1,179.383,70.09Z" transform="translate(-2517.374 -5422.971)" fill="#303030"/><path id="Path_625" data-name="Path 625" d="M81.655,35.333h-1s0-4.018,0-4.026a.232.232,0,0,0-.054-.158l-2.675-3.679a.333.333,0,0,0-.27-.137H74.519L75.8,25.7a7.084,7.084,0,0,0,1.518-4.371,5.333,5.333,0,0,0-10.667,0A7.084,7.084,0,0,0,68.173,25.7l2.922,3.7-1.384,2.076a.333.333,0,0,0-.056.185v3.667H67.989v-.709a1.336,1.336,0,0,0,1-1.291v-2a1.333,1.333,0,1,0-2.667,0v.14a1.667,1.667,0,1,0-1,3.16v.7h-.667a.333.333,0,1,0,0,.667h17a.333.333,0,1,0,0-.667Zm-6,0V31.667h4.333v3.667ZM75.819,28l.97,1.333h-.842L74.977,28Zm1.339,3-.727-1h.842L78,31Zm1.667,0L78.1,30h.842l.727,1Zm-4.673-3,.97,1.333h-.8l-.04,0L73.31,28Zm1.455,2,.727,1h-.842l-.727-1Zm2.848-.667h-.842L76.643,28h.842ZM68.7,25.292a6.414,6.414,0,0,1-1.374-3.958,4.667,4.667,0,1,1,9.333,0,6.414,6.414,0,0,1-1.374,3.958l-1.594,2.019-.016.022H72.647a.609.609,0,0,0-.269.148l-.894,1.341Zm1.626,6.476,1.459-2.189v0l.885-1.327,2.321,3.192v3.892h-1v-3a1.333,1.333,0,0,0-2.667,0v3h-1Zm1.667,3.566v-3a.667.667,0,1,1,1.333,0v3Zm-5-4a.667.667,0,1,1,1.333,0v2a.666.666,0,0,1-1.182.422A1.662,1.662,0,0,0,66.985,32a.332.332,0,0,0,0-.046ZM64.655,33a1,1,0,1,1,1,1A1,1,0,0,1,64.655,33Zm1.333,1.633a1.662,1.662,0,0,0,.731-.351,1.345,1.345,0,0,0,.6.341v.71H65.989Z" transform="translate(-2409.988 -5377)" fill="#303030"/></g></svg>