<svg xmlns="http://www.w3.org/2000/svg" width="79.523" height="78.822" viewBox="0 0 79.523 78.822">
  <g id="Group_6533" transform="translate(0.007 -0.078)">
    <path id="Path_4210" d="M27.5,29.4h0a2.609,2.609,0,0,1-2.1-1.1,3.915,3.915,0,0,0,.8-1,.889.889,0,0,0-.3-1.3.948.948,0,0,0-1.3.2,2.7,2.7,0,0,1-.7.8,6.47,6.47,0,0,1-.9-.8.93.93,0,1,0-1.5,1.1,4.741,4.741,0,0,0,1,1,2.334,2.334,0,0,1-2,1,1,1,0,0,0,0,2h0A4.4,4.4,0,0,0,24,29.6a4.266,4.266,0,0,0,3.5,1.7h0a1,1,0,0,0,1-1,.987.987,0,0,0-1-.9Z" fill="#93688a"/>
    <path id="Path_4211" d="M13.9,30.3H9.3a.951.951,0,1,1,.1-1.9H14a1,1,0,0,1,1,1A1.273,1.273,0,0,1,13.9,30.3Z" fill="#93688a"/>
    <path id="Path_4212" d="M13.9,33.6H9.3a.951.951,0,1,1,.1-1.9H14a1,1,0,0,1,1,1A1.172,1.172,0,0,1,13.9,33.6Z" fill="#93688a"/>
    <path id="Path_4213" d="M38.9,30.4H34.3a.871.871,0,0,1-.9-1,1,1,0,0,1,1-1H39a1,1,0,0,1,1,1,1.09,1.09,0,0,1-1.1,1Z" fill="#93688a"/>
    <path id="Path_4214" d="M39,33.7H34.4a.871.871,0,0,1-.9-1,1,1,0,0,1,1-1h4.6a.871.871,0,0,1,.9,1,1.071,1.071,0,0,1-1,1Z" fill="#93688a"/>
    <path id="Path_4215" d="M8.5,13.7H8.3c-.7-.1-1.2-.8-1.5-2.2,0,0-.8-3.8.7-4.8s4.6.9,4.8,1c1.2.7,1.7,1.4,1.6,2.1s-.9,1.5-2.3,2.5a6.141,6.141,0,0,1-3.1,1.4Zm0-5.4a7.84,7.84,0,0,0,.2,3.4,11.542,11.542,0,0,0,2.9-2A7.269,7.269,0,0,0,8.5,8.3Zm-.6-.8Z" fill="#93688a"/>
    <path id="Path_4216" d="M39.9,13.2A5.423,5.423,0,0,1,37,11.7c-1.4-1.1-2.1-2-2.2-2.7s.5-1.4,1.7-2.1c0,0,3.4-1.9,4.8-.7,1.4,1.1.4,4.7.3,4.8-.4,1.3-.9,2-1.6,2.1C40,13.2,40,13.2,39.9,13.2ZM36.9,9a10.112,10.112,0,0,0,2.8,2.2,7.826,7.826,0,0,0,.5-3.4A6.619,6.619,0,0,0,36.9,9Zm3.3-1.3Z" fill="#93688a"/>
    <path id="Path_4217" d="M78.5,39.8a12.54,12.54,0,0,0-7.9-5.2A10.337,10.337,0,0,0,63,36.2,10.791,10.791,0,0,0,58.4,43,12.437,12.437,0,0,0,60,51.8c.7,1.1.6,1.7.4,2A43.372,43.372,0,0,0,51.3,42a70.06,70.06,0,0,0-6-4.8,12.463,12.463,0,0,0,3-8.3,26.9,26.9,0,0,0-3.1-12.5C46.7,11.4,48,3,44,.7c-3.4-1.9-8.3,1-11.2,2.7-.3.2-.7.4-1,.6a23.518,23.518,0,0,0-7.4-1.3h0a21.124,21.124,0,0,0-8.2,1.7c-.3-.2-.8-.5-1.1-.7C12.3,1.9,8-.8,4.8.6c-2.3,1-3.4,3.3-3.4,6.9a41.878,41.878,0,0,0,1.5,8.6A27.275,27.275,0,0,0,0,28.9c0,5.3,3.1,9.8,9.1,13a44.256,44.256,0,0,0,4.5,2,45.243,45.243,0,0,0-.6,7.4,37.851,37.851,0,0,0,.5,5.8L16,74.4l-.3,1a2.686,2.686,0,0,0,1.7,3.4,2.769,2.769,0,0,0,.9.1h5.4a1.854,1.854,0,0,0,.7-.2,1.854,1.854,0,0,0,.7.2h5.4a2.689,2.689,0,0,0,2.7-2.7,2.769,2.769,0,0,0-.1-.9l-.3-.8a23.58,23.58,0,0,0,2.8.4h0a4.384,4.384,0,0,0,4.7,4H52.2A5.722,5.722,0,0,0,57.9,74,13.152,13.152,0,0,0,63,64v-.1l1.8-.9a11.972,11.972,0,0,0,5.3-6.6,12.256,12.256,0,0,0-1.4-9.9c-.6-1-.5-1.8-.1-2,.3-.2,1,.3,1.8,1.3a5.1,5.1,0,0,0,7.1,1,4.976,4.976,0,0,0,1-7Zm-67.9-.6C7.2,37.4,3.2,34.1,3.2,29A24.921,24.921,0,0,1,6.1,17.1l.3-.6-.2-.6c-.7-2.8-3-11.2-.1-12.5a1.7,1.7,0,0,1,.7-.1c1.9,0,5,2,6.6,3,1.8,1.1,2.5,1.6,3.5,1.1.1-.1.3-.1.4-.2L17.2,12a1.561,1.561,0,0,0,1.5,1.6h0a1.63,1.63,0,0,0,1.6-1.5l.1-5.9a15.525,15.525,0,0,1,2.1-.4l.2,10.6a1.5,1.5,0,0,0,1.6,1.5h0a1.5,1.5,0,0,0,1.5-1.6L25.7,5.8a7.613,7.613,0,0,1,2.1.3L27.7,12a1.561,1.561,0,0,0,1.5,1.6h0a1.63,1.63,0,0,0,1.6-1.5L30.9,7c.1,0,.3.1.4.1.9.3,1.5,0,3.1-1,1.9-1.1,6.2-3.7,8-2.7,1.3.7,1.8,5.9-.4,12.6l-.2.6.3.6a23.6,23.6,0,0,1,3,11.6,10.067,10.067,0,0,1-3.2,7.3c-4.3,4.3-12.2,6.6-17.6,6.6h-.1a32.274,32.274,0,0,1-13.6-3.5ZM60,63.7v.2h0a9.438,9.438,0,0,1-4.3,7.9,1.457,1.457,0,0,0-.7,1.3,2.689,2.689,0,0,1-2.7,2.7h-12c-.7,0-1.6-.2-1.6-1.2a3.8,3.8,0,0,1,1.8-1.3.1.1,0,0,0,.1-.1l1.7-.8a1.5,1.5,0,0,0,.8-1.8,2.024,2.024,0,0,0-1.4-1.3A1.943,1.943,0,0,1,40,67.1c-.1-3.5,3.5-5.9,9.1-6.1a1.551,1.551,0,0,0-.1-3.1h0a16.532,16.532,0,0,0-8.6,2.5,7.828,7.828,0,0,0-3.5,6.7,5.489,5.489,0,0,0,1.4,3.7,7.165,7.165,0,0,0-1.5,1.1c-1.2-.1-2.5-.3-3.7-.5l1.7-11.7A1.569,1.569,0,0,0,33.4,58a1.631,1.631,0,0,0-1.7,1.2l-2.2,15a1.7,1.7,0,0,0,.1.7l.3.8H26.5l-1.3-15a1.557,1.557,0,1,0-3.1.3h0V75.8H18.9l.3-.8a1.7,1.7,0,0,0,.1-.7L16.4,54.1V54a22.624,22.624,0,0,1-.1-2.7,35.6,35.6,0,0,1,.5-6.5,32.2,32.2,0,0,0,7.5,1h.2c5.7,0,13.6-2.2,18.7-6.4a40.271,40.271,0,0,1,6.1,4.8C55.9,50.3,60,57.8,60.1,63.6a.1.1,0,0,0-.1.1ZM76.4,43.1a1.943,1.943,0,0,1-2.2,1.7,1.826,1.826,0,0,1-1.3-.8c-2.2-2.9-4.6-3-6-2-1.5,1-2.5,3.4-.8,6.2a9.193,9.193,0,0,1,1.1,7.4,9.09,9.09,0,0,1-3.9,4.9c-.1.1-.3.2-.4.3a19.006,19.006,0,0,0-1.1-3.9,4.62,4.62,0,0,0,.7-.7c1.9-2,1.2-4.4.2-6a9.348,9.348,0,0,1-1.2-6.5,7.45,7.45,0,0,1,3.3-4.8c2.9-1.9,7.7-1.9,11.3,2.9a1.692,1.692,0,0,1,.3,1.3Z" fill="#93688a"/>
    <path id="Path_4218" d="M39.8,49a1,1,0,0,1-1-1h0V46.1a1,1,0,0,1,2,0V48A1.071,1.071,0,0,1,39.8,49Z" fill="#93688a"/>
    <path id="Path_4219" d="M48.8,52.4a1,1,0,0,1-1-1h0V49.5a1,1,0,0,1,2,0h0v1.9A1.075,1.075,0,0,1,48.8,52.4Z" fill="#93688a"/>
    <path id="Path_4220" d="M44,53.6a1,1,0,0,1-1-1h0V50.7a1,1,0,0,1,1-1,1.071,1.071,0,0,1,1,1v1.9A1,1,0,0,1,44,53.6Z" fill="#93688a"/>
    <path id="Path_4221" d="M15.8,23.4a2.1,2.1,0,1,1-2.1-2.1h0A2.049,2.049,0,0,1,15.8,23.4Z" fill="#93688a"/>
    <path id="Path_4222" d="M36.6,23.4a2.1,2.1,0,1,1-2.1-2.1h0A1.994,1.994,0,0,1,36.6,23.4Z" fill="#93688a"/>
  </g>
</svg>
