<svg xmlns="http://www.w3.org/2000/svg" width="20" height="13.333" viewBox="0 0 20 13.333"><g id="Dashboard" transform="translate(2347 5476.629)"><path id="Path_547" data-name="Path 547" d="M239.784,213.443l-4.855,4.268-.019.017a.829.829,0,0,0,.586,1.417.841.841,0,0,0,.605-.262l4.268-4.855a.415.415,0,0,0-.586-.585Z" transform="translate(-2572.482 -5684.95)" fill="#303030"/><path id="Path_548" data-name="Path 548" d="M10,85.333A10,10,0,0,0,.475,98.377a.417.417,0,0,0,.4.29H19.128a.417.417,0,0,0,.4-.29A10,10,0,0,0,10,85.333ZM17.917,95.75h1.221a9.126,9.126,0,0,1-.319,2.083H1.182A9.127,9.127,0,0,1,.862,95.75H2.083a.417.417,0,0,0,0-.833H.854a9.1,9.1,0,0,1,1.014-3.8l1.067.616a.417.417,0,0,0,.417-.722L2.287,90.4A9.227,9.227,0,0,1,5.066,87.62l.615,1.066a.416.416,0,1,0,.721-.417L5.786,87.2a9.1,9.1,0,0,1,3.8-1.014v1.229a.417.417,0,0,0,.833,0V86.187a9.1,9.1,0,0,1,3.8,1.014L13.6,88.269a.416.416,0,1,0,.721.417l.615-1.066A9.227,9.227,0,0,1,17.713,90.4l-1.065.615a.417.417,0,0,0,.417.722l1.067-.616a9.1,9.1,0,0,1,1.014,3.8H17.917a.417.417,0,1,0,0,.833Z" transform="translate(-2347 -5561.962)" fill="#303030"/></g></svg>