<svg xmlns="http://www.w3.org/2000/svg" width="95.442" height="80.6" viewBox="0 0 95.442 80.6">
  <g id="dog" transform="translate(0 0)">
    <g id="Group_6528" data-name="Group 6528" transform="translate(70.743 8.332)">
      <g id="Group_6527" data-name="Group 6527" transform="translate(0 0)">
        <circle id="Ellipse_56" data-name="Ellipse 56" cx="2.386" cy="2.386" r="2.386" fill="#93688a"/>
      </g>
    </g>
    <g id="Group_6530" data-name="Group 6530" transform="translate(0 0)">
      <g id="Group_6529" data-name="Group 6529" transform="translate(0 0)">
        <path id="Path_4207" data-name="Path 4207" d="M91.932,44.4c-4.059,0-7.543.286-10.907-3.079L76.67,36.962a10.514,10.514,0,0,0-7.434-3.079h-12.3a10.554,10.554,0,0,0-7.451,3.079l-.064.064-8.2,8.2a9.119,9.119,0,0,0-2.671,6.448V54.43c0,4.989,3.959,10.135,8.894,10.871a10.988,10.988,0,0,0,1.619.121v.7C40.425,71.1,22.706,81.136,19.2,84.618a18.163,18.163,0,0,0-5.18,12.343,16.379,16.379,0,0,0,1.5,7.035L5.257,103.97a5.257,5.257,0,1,0,0,10.513H49.009a3.492,3.492,0,0,0,3.149-5.074,10.563,10.563,0,0,0-5.032-4.575c1.2-2.391,1.9-4.369,4.922-4.369h4.021v10.515a3.5,3.5,0,0,0,3.5,3.5H72.611a3.518,3.518,0,0,0,3.067-5.251,10.542,10.542,0,0,0-7.8-5.131l.779-6.235a17.385,17.385,0,0,0,1.427-28.86V61.918H80.6a13.769,13.769,0,0,0,10.615-6.01c.836-1.393,4.236-6.443,4.227-8.019A3.508,3.508,0,0,0,91.932,44.4ZM49.045,61.88a7.117,7.117,0,0,1-6.993-7.361V51.678A5.585,5.585,0,0,1,43.7,47.707l8.2-8.2a7.16,7.16,0,0,1,4.17-2.029V54.909A6.982,6.982,0,0,1,49.045,61.88Zm-43.789,49.1a1.752,1.752,0,0,1-.009-3.5l12.387.032a12.631,12.631,0,0,0,3.5,3.472ZM88.21,54.1a9.873,9.873,0,0,1-7.61,4.309H71.662a5.249,5.249,0,0,1-4.934-3.5h-3.65a8.752,8.752,0,0,0,3.5,5.345v10.5c5.048,3.816,7.91,8.162,6.794,14.667-.887,5.166-4.012,7.9-7.985,10.343-.842,6.735-1.1,8.772-1.424,11.385,3.534.44,6.718.447,8.644,3.834H59.574V93.457h-3.5v3.5H52.048A7.792,7.792,0,0,0,49,97.651a17.582,17.582,0,0,0-5.074-13.08L41.45,87.049a14.224,14.224,0,0,1,1.916,17.441l-1.051,2.077c2.726,1.182,5.339,1.92,6.693,4.412H31.529a13.978,13.978,0,0,1-8.311-25.226c3.857-2.873,25.18-15.2,29.347-17.606,0-.953,0-2.462,0-3.368a10.483,10.483,0,0,0,7.011-9.87V37.387h9.663a7.007,7.007,0,0,1,4.955,2.053l4.354,4.354a13.89,13.89,0,0,0,9.279,4.044A4.917,4.917,0,0,0,90.2,50.786Z" transform="translate(0 -33.883)" fill="#93688a"/>
      </g>
    </g>
  </g>
</svg>
