<svg xmlns="http://www.w3.org/2000/svg" width="276.279" height="276.313" viewBox="0 0 276.279 276.313"><defs><style>.a{fill:#93688a;}</style></defs><g transform="translate(1051.83 -44.83)"><path class="a" d="M-805.037,184.685A108.668,108.668,0,0,1-913.707,291.691a108.718,108.718,0,0,1-108.7-108.7,108.718,108.718,0,0,1,108.7-108.7,109.107,109.107,0,0,1,33.97,5.4l23.1-22.556a137.428,137.428,0,0,0-57.07-12.3A138.134,138.134,0,0,0-1051.83,182.987,138.134,138.134,0,0,0-913.707,321.143,138.183,138.183,0,0,0-775.551,184.685Z" transform="translate(0)"/><path class="a" d="M-1011.789,131.993l41.427,41.423L-852.947,56l22.568,22.568-139.7,139.7-63.422-63.422S-1011.789,130.279-1011.789,131.993Z" transform="translate(41.972 27.123)"/></g></svg>