<svg xmlns="http://www.w3.org/2000/svg" width="20" height="19.999" viewBox="0 0 20 19.999">
  <g id="Group_6556" data-name="Group 6556" transform="translate(-179 -670)">
    <path id="Path_634" data-name="Path 634" d="M38.454,6.743a.632.632,0,0,1-.631-.631V2.323A1.054,1.054,0,0,0,36.77,1.271H27.3a.631.631,0,1,1,0-1.263H36.77a2.317,2.317,0,0,1,2.315,2.315V6.111A.632.632,0,0,1,38.454,6.743Zm0,0" transform="translate(153.385 669.992)" fill="#3b3b3b"/>
    <path id="Path_631" data-name="Path 631" d="M285.961,209.271h-8a.631.631,0,0,1,0-1.263h8a.631.631,0,0,1,0,1.263Zm0,0" transform="translate(-87.593 470.111)" fill="#303030"/>
    <path id="Path_632" data-name="Path 632" d="M400.635,135.548a.632.632,0,0,1-.446-1.078l2.711-2.711-2.711-2.711a.632.632,0,1,1,.893-.893l3.157,3.157a.632.632,0,0,1,0,.893l-3.157,3.157A.627.627,0,0,1,400.635,135.548Zm0,0" transform="translate(-205.424 546.997)" fill="#303030"/>
    <path id="Path_633" data-name="Path 633" d="M6.735,20.007a1.751,1.751,0,0,1-.522-.078L1.146,18.259A1.683,1.683,0,0,1,0,16.674v-15A1.677,1.677,0,0,1,1.683.008a1.753,1.753,0,0,1,.522.078L7.272,1.756A1.683,1.683,0,0,1,8.418,3.341v15a1.677,1.677,0,0,1-1.684,1.667ZM1.683,1.258a.42.42,0,0,0-.421.417v15a.433.433,0,0,0,.292.4L6.6,18.739a.462.462,0,0,0,.137.018.42.42,0,0,0,.421-.417v-15a.433.433,0,0,0-.292-.4L1.821,1.276a.461.461,0,0,0-.137-.018Zm0,0" transform="translate(179 669.992)" fill="#303030"/>
    <path id="Path_635" data-name="Path 635" d="M185.331,284.075h-3.367a.631.631,0,1,1,0-1.263h3.367a1.054,1.054,0,0,0,1.052-1.052v-3.788a.631.631,0,0,1,1.263,0v3.788A2.317,2.317,0,0,1,185.331,284.075Zm0,0" transform="translate(4.718 403.398)" fill="#303030"/>
  </g>
</svg>
