<svg xmlns="http://www.w3.org/2000/svg" width="20" height="15.643" viewBox="0 0 20 15.643"><g id="Password" transform="translate(-179 -612.91)"><path id="Path_627" data-name="Path 627" d="M19.315,55.772H.685A.686.686,0,0,0,0,56.457V69.1a.686.686,0,0,0,.685.685H3.633a.293.293,0,1,0,0-.587H.685a.1.1,0,0,1-.1-.1V60.233H10.8a.293.293,0,0,0,0-.587H.587V56.457a.1.1,0,0,1,.1-.1h18.63a.1.1,0,0,1,.1.1v3.189H12.28a.293.293,0,1,0,0,.587h7.133V69.1a.1.1,0,0,1-.1.1h-.682V65.764a.881.881,0,0,0-.811-.877V63.719a2.477,2.477,0,0,0-2.445-2.5H14.1a2.479,2.479,0,0,0-2.438,2.31.451.451,0,0,0,.449.485h.865a.451.451,0,0,0,.446-.394.707.707,0,0,1,.678-.64h1.279a.715.715,0,0,1,.685.741v1.165H11.948a.881.881,0,0,0-.88.88V69.2H5.1a.293.293,0,1,0,0,.587h5.972v.749a.881.881,0,0,0,.88.88h5.805a.881.881,0,0,0,.88-.88v-.749h.682A.686.686,0,0,0,20,69.1V56.457A.686.686,0,0,0,19.315,55.772Zm-3.939,6.619H14.1a1.289,1.289,0,0,0-1.24,1.034h-.6A1.886,1.886,0,0,1,14.1,61.8h1.279a1.889,1.889,0,0,1,1.858,1.915v1.165h-.587V63.719A1.3,1.3,0,0,0,15.377,62.391Zm2.67,8.143a.294.294,0,0,1-.293.293H11.948a.294.294,0,0,1-.293-.293v-4.77a.294.294,0,0,1,.293-.293h5.805a.294.294,0,0,1,.293.293Z" transform="translate(179 557.138)" fill="#303030"/><circle id="Ellipse_40" data-name="Ellipse 40" cx="0.582" cy="0.582" r="0.582" transform="translate(180.624 614.584)" fill="#303030"/>   <circle id="Ellipse_41" data-name="Ellipse 41" cx="0.582" cy="0.582" r="0.582" transform="translate(182.334 614.584)" fill="#303030"/><circle id="Ellipse_42" data-name="Ellipse 42" cx="0.582" cy="0.582" r="0.582" transform="translate(184.073 614.584)" fill="#303030"/><path id="Path_629" data-name="Path 629" d="M169.913,219.446a.3.3,0,0,0,.408.109l1.222-.706v1.411a.3.3,0,1,0,.6,0v-1.411l1.222.706a.3.3,0,0,0,.3-.517l-1.222-.706,1.222-.706a.3.3,0,0,0-.3-.517l-1.222.706V216.4a.3.3,0,1,0-.6,0v1.411l-1.222-.706a.3.3,0,0,0-.3.517l1.222.706-1.222.706A.3.3,0,0,0,169.913,219.446Z" transform="translate(15.736 403.026)" fill="#303030"/><path id="Path_630" data-name="Path 630" d="M348.008,324.52a1.351,1.351,0,1,0-1.786,2.027v.7a.5.5,0,0,0,.5.5h.727a.5.5,0,0,0,.5-.5v-.7a1.351,1.351,0,0,0,.065-2.027Zm-.476,1.591a.459.459,0,0,0-.185.367v.669h-.528v-.669a.461.461,0,0,0-.186-.368.755.755,0,0,1-.3-.654.763.763,0,0,1,.7-.7.755.755,0,0,1,.5,1.36Z" transform="translate(-153.26 299.154)" fill="#303030"/></g></svg>